<svg xmlns="http://www.w3.org/2000/svg" xmlns:xlink="http://www.w3.org/1999/xlink" viewBox="0 0 500 500"><defs><style>.cls-1,.cls-4{fill:none;}.cls-2{fill:#ff99d6;}.cls-3{fill:#71d0ff;}.cls-4{stroke:#3a3a3a;stroke-miterlimit:10;stroke-width:5px;}.cls-5{fill:#78ffeb;}.cls-6{fill:#3a3a3a;}.cls-7{fill:#a691f2;}.cls-8{fill:url(#New_Pattern_Swatch_2);}</style><pattern id="New_Pattern_Swatch_2" data-name="New Pattern Swatch 2" width="1246.86" height="1190.08" patternTransform="translate(3.75 791.19) scale(0.7)" patternUnits="userSpaceOnUse" viewBox="0 0 1246.86 1190.08"><rect class="cls-1" width="1246.86" height="1190.08"/><polygon class="cls-2" points="1297.54 1216.45 1227.14 1260.21 1218.58 1167.94 1297.54 1216.45"/><path class="cls-3" d="M159.2,1205a26.12,26.12,0,1,1-26.12-26.12A26.12,26.12,0,0,1,159.2,1205Z"/><polygon class="cls-2" points="50.68 1216.45 -19.72 1260.21 -28.28 1167.94 50.68 1216.45"/><polyline class="cls-4" points="115.85 1240.21 121.25 1220.05 141.41 1225.46 146.81 1205.29 166.98 1210.7 172.38 1190.53 192.54 1195.94 197.94 1175.77 218.11 1181.18"/><circle class="cls-5" cx="1002.67" cy="1055.25" r="40.32"/><rect class="cls-3" x="920.42" y="924.49" width="44.24" height="44.24"/><polygon class="cls-6" points="1209.63 780.63 1188.24 780.63 1198.93 759.25 1209.63 780.63"/><polygon class="cls-6" points="1034.13 949.39 1012.75 949.39 1023.44 928.01 1034.13 949.39"/><polygon class="cls-4" points="1003.37 1058.19 955.97 1010.79 1027.07 987.09 1003.37 1058.19"/><path class="cls-2" d="M1268.87,985.74a28.33,28.33,0,0,0-4.09-1.73l-36,36a27.75,27.75,0,0,0,1.73,4.08Z"/><path class="cls-2" d="M1227.91,1016.63l33.52-33.52a29.52,29.52,0,0,0-5.27-.55l-28.8,28.8A28.63,28.63,0,0,0,1227.91,1016.63Z"/><path class="cls-2" d="M1274.81,989.85a30.15,30.15,0,0,0-3.27-2.55l-39.43,39.44a28.87,28.87,0,0,0,2.54,3.27Z"/><path class="cls-2" d="M1279.48,995.25a29,29,0,0,0-2.54-3.28l-40.17,40.16a28.81,28.81,0,0,0,3.28,2.55Z"/><path class="cls-2" d="M1282.78,1002a28.33,28.33,0,0,0-1.73-4.09l-38.33,38.33a27.87,27.87,0,0,0,4.09,1.73Z"/><path class="cls-2" d="M1251.62,982.86a28.45,28.45,0,0,0-24,23.95Z"/><path class="cls-2" d="M1045.19,685.64a17.71,17.71,0,0,0-2.42-1l-21.28,21.27a16.71,16.71,0,0,0,1,2.42Z"/><path class="cls-2" d="M1021,703.91l19.83-19.82a16,16,0,0,0-3.12-.33l-17,17A17.73,17.73,0,0,0,1021,703.91Z"/><path class="cls-2" d="M1054,697.24l-19.83,19.83a16,16,0,0,0,3.12.33l17-17A17,17,0,0,0,1054,697.24Z"/><path class="cls-2" d="M1048.7,688.07a16.6,16.6,0,0,0-1.93-1.5l-23.33,23.32a16.79,16.79,0,0,0,1.51,1.94Z"/><path class="cls-2" d="M1051.46,691.27a15.68,15.68,0,0,0-1.5-1.94l-23.76,23.76a17.6,17.6,0,0,0,1.94,1.5Z"/><path class="cls-2" d="M1039.92,717.22a16.81,16.81,0,0,0,14.17-14.17Z"/><path class="cls-2" d="M1053.42,695.27a15.71,15.71,0,0,0-1-2.42l-22.67,22.67a15.67,15.67,0,0,0,2.42,1Z"/><path class="cls-2" d="M1035,683.94a16.82,16.82,0,0,0-14.17,14.17Z"/><polygon class="cls-3" points="968.96 724.06 960.88 740.23 992.45 708.66 989.76 703.27 968.96 724.06"/><polygon class="cls-3" points="997.11 717.98 994.42 712.58 954.98 752.02 946.9 768.19 997.11 717.98"/><polygon class="cls-3" points="1006.43 736.62 1003.74 731.23 963.56 771.4 971.65 771.4 1006.43 736.62"/><polygon class="cls-3" points="1001.77 727.3 999.08 721.91 949.58 771.4 957.67 771.4 1001.77 727.3"/><polygon class="cls-3" points="1011.09 745.94 1008.4 740.54 977.54 771.4 985.63 771.4 1011.09 745.94"/><polygon class="cls-3" points="987.79 699.34 984.56 692.87 974.86 712.27 987.79 699.34"/><polygon class="cls-3" points="1005.5 771.4 1023.82 771.4 1017.72 759.19 1005.5 771.4"/><polygon class="cls-3" points="1015.75 755.25 1013.06 749.87 991.52 771.4 999.61 771.4 1015.75 755.25"/><polygon class="cls-3" points="1141.25 726.46 1132.5 729.38 1155.28 729.38 1156.25 726.46 1141.25 726.46"/><polygon class="cls-3" points="1153.6 734.42 1154.57 731.51 1126.12 731.51 1117.37 734.42 1153.6 734.42"/><polygon class="cls-3" points="1150.23 744.51 1151.21 741.59 1122.22 741.59 1125.14 744.51 1150.23 744.51"/><polygon class="cls-3" points="1151.92 739.47 1152.89 736.55 1117.18 736.55 1120.1 739.47 1151.92 739.47"/><polygon class="cls-3" points="1148.56 749.55 1149.53 746.64 1127.27 746.64 1130.18 749.55 1148.56 749.55"/><polygon class="cls-3" points="1156.96 724.34 1158.13 720.84 1147.63 724.34 1156.96 724.34"/><polygon class="cls-3" points="1137.35 756.73 1143.96 763.33 1146.16 756.73 1137.35 756.73"/><polygon class="cls-3" points="1146.87 754.6 1147.85 751.68 1132.31 751.68 1135.23 754.6 1146.87 754.6"/><polygon class="cls-5" points="1290.39 1091.8 1291.81 1087.53 1250.1 1087.53 1237.27 1091.8 1290.39 1091.8"/><polygon class="cls-5" points="1285.46 1106.59 1286.88 1102.31 1244.39 1102.31 1248.66 1106.59 1285.46 1106.59"/><polygon class="cls-5" points="1287.92 1099.19 1289.35 1094.92 1236.99 1094.92 1241.27 1099.19 1287.92 1099.19"/><polygon class="cls-3" points="1262.85 905.53 1268.81 899.58 1190.57 899.58 1196.52 905.53 1262.85 905.53"/><polygon class="cls-3" points="1268.81 895.23 1262.85 889.28 1196.52 889.28 1190.57 895.23 1268.81 895.23"/><polygon class="cls-3" points="1217.12 868.68 1211.17 874.63 1248.21 874.63 1242.26 868.68 1217.12 868.68"/><polygon class="cls-3" points="1258.51 884.93 1252.56 878.98 1206.82 878.98 1200.87 884.93 1258.51 884.93"/><polygon class="cls-3" points="1242.26 926.13 1248.21 920.17 1211.17 920.17 1217.12 926.13 1242.26 926.13"/><polygon class="cls-3" points="1221.46 930.48 1229.69 938.7 1237.91 930.48 1221.46 930.48"/><polygon class="cls-3" points="1237.91 864.33 1229.69 856.11 1221.46 864.33 1237.91 864.33"/><polygon class="cls-3" points="1252.56 915.83 1258.51 909.88 1200.87 909.88 1206.82 915.83 1252.56 915.83"/><polyline class="cls-4" points="1058.89 750.48 1072.97 750.48 1072.97 764.56 1087.04 764.56 1087.04 778.63 1101.12 778.63 1101.12 792.71 1115.19 792.71 1115.19 806.78 1129.27 806.78"/><polyline class="cls-4" points="1232.44 900.21 1242.39 890.25 1252.34 900.21 1262.3 890.25 1272.25 900.21 1282.2 890.25 1292.15 900.21 1302.11 890.25 1312.06 900.21 1322.01 890.25"/><polyline class="cls-4" points="1075.74 1107.82 1075.74 1091.97 1091.6 1091.97 1091.6 1076.12 1107.45 1076.12 1107.45 1060.26 1123.31 1060.26 1123.31 1044.41 1139.16 1044.41 1139.16 1028.56"/><polygon class="cls-2" points="1297.54 621.41 1227.14 665.18 1218.58 572.9 1297.54 621.41"/><polygon class="cls-2" points="1002.33 837.43 931.94 881.19 923.37 788.91 1002.33 837.43"/><polygon class="cls-2" points="1135.85 983.75 1081.96 1017.25 1075.4 946.61 1135.85 983.75"/><path class="cls-4" d="M1137,978.13a16.94,16.94,0,1,1-23.33-5.44A16.94,16.94,0,0,1,1137,978.13Z"/><path class="cls-4" d="M1032.52,755.11a29.37,29.37,0,1,1-40.44-9.44A29.36,29.36,0,0,1,1032.52,755.11Z"/><polygon class="cls-4" points="1102.57 682.64 1081.01 661.08 1113.35 650.3 1102.57 682.64"/><rect class="cls-4" x="1180.96" y="614.58" width="22.35" height="22.35"/><rect class="cls-4" x="942.54" y="909.43" width="37.18" height="37.18"/><rect class="cls-6" x="1172.44" y="1003.34" width="29.22" height="29.22"/><rect class="cls-6" x="1199.29" y="680.69" width="20.67" height="20.67"/><polygon class="cls-6" points="1057.6 647.39 1042.99 662 1028.38 647.39 1042.99 632.78 1057.6 647.39"/><rect class="cls-6" x="946.26" y="1187.54" width="29.22" height="29.22"/><path class="cls-3" d="M1187.05,1082.76a20.88,20.88,0,1,1-20.88-20.88A20.88,20.88,0,0,1,1187.05,1082.76Z"/><polyline class="cls-4" points="1152.4 1110.95 1156.71 1094.83 1172.83 1099.15 1177.15 1083.03 1193.27 1087.35 1197.59 1071.23 1213.71 1075.55 1218.03 1059.43 1234.14 1063.75"/><polygon class="cls-4" points="1012.99 1218.92 991.43 1197.36 1023.77 1186.58 1012.99 1218.92"/><rect class="cls-4" x="1180.96" y="1169.44" width="22.35" height="22.35"/><polygon class="cls-5" points="1119.01 1128.29 1113.22 1118.26 1085.37 1222.18 1095.4 1216.39 1119.01 1128.29"/><polygon class="cls-5" points="1107.45 1116.71 1097.42 1122.5 1073.82 1210.6 1079.61 1220.63 1107.45 1116.71"/><polygon class="cls-5" points="1053.79 1175.91 1059.58 1185.94 1072.76 1136.74 1062.73 1142.53 1053.79 1175.91"/><polygon class="cls-5" points="1090.11 1126.72 1080.08 1132.52 1063.8 1193.26 1069.59 1203.29 1090.11 1126.72"/><polygon class="cls-5" points="1139.04 1162.98 1133.25 1152.95 1120.06 1202.15 1130.1 1196.36 1139.04 1162.98"/><polygon class="cls-5" points="1137.41 1192.13 1151.26 1184.14 1143.26 1170.29 1137.41 1192.13"/><polygon class="cls-5" points="1055.42 1146.75 1041.57 1154.75 1049.56 1168.6 1055.42 1146.75"/><polygon class="cls-5" points="1129.03 1145.63 1123.23 1135.6 1102.72 1212.16 1112.75 1206.37 1129.03 1145.63"/><polyline class="cls-4" points="903.01 868.17 917.77 853.41 932.53 868.17 947.29 853.41 962.05 868.17 976.81 853.41 991.57 868.17 1006.33 853.41 1021.09 868.17 1035.85 853.41"/><path class="cls-5" d="M1133,888.67a28.09,28.09,0,1,1-28.09-28.08A28.09,28.09,0,0,1,1133,888.67Z"/><polygon class="cls-4" points="1105.43 890.72 1072.41 857.7 1121.94 841.19 1105.43 890.72"/><polygon class="cls-5" points="1300.7 753.05 1252.72 770.52 1235.26 722.53 1283.24 705.07 1300.7 753.05"/><line class="cls-4" x1="1147.66" y1="677.39" x2="1129.3" y2="695.75"/><line class="cls-4" x1="1147.66" y1="695.75" x2="1129.3" y2="677.39"/><line class="cls-4" x1="1262.48" y1="817.95" x2="1244.12" y2="836.31"/><line class="cls-4" x1="1262.48" y1="836.31" x2="1244.12" y2="817.95"/><line class="cls-4" x1="1014.68" y1="1136.55" x2="996.33" y2="1154.9"/><line class="cls-4" x1="1014.68" y1="1154.9" x2="996.33" y2="1136.55"/><path class="cls-6" d="M1186.92,960.12a11.59,11.59,0,1,1-11.59-11.58A11.59,11.59,0,0,1,1186.92,960.12Z"/><path class="cls-6" d="M1177.76,841.19a11.59,11.59,0,1,1-11.59-11.58A11.59,11.59,0,0,1,1177.76,841.19Z"/><polygon class="cls-2" points="777.94 1050.57 754.67 1073.85 731.39 1050.57 754.67 1027.3 777.94 1050.57"/><polygon class="cls-6" points="586.19 1078.15 564.81 1078.15 575.5 1056.77 586.19 1078.15"/><polygon class="cls-6" points="824.68 1088.19 803.3 1088.19 813.99 1066.81 824.68 1088.19"/><path class="cls-2" d="M421.75,983.16a16.75,16.75,0,0,0-2.42-1l-21.27,21.28a16.71,16.71,0,0,0,1,2.42Z"/><path class="cls-2" d="M397.53,1001.43l19.82-19.82a15.92,15.92,0,0,0-3.11-.33l-17,17A17.74,17.74,0,0,0,397.53,1001.43Z"/><path class="cls-2" d="M430.52,994.76l-19.83,19.83a17.73,17.73,0,0,0,3.11.33l17-17A17,17,0,0,0,430.52,994.76Z"/><path class="cls-2" d="M425.27,985.59a15.58,15.58,0,0,0-1.93-1.5L400,1007.41a17.6,17.6,0,0,0,1.5,1.94Z"/><path class="cls-2" d="M428,988.79a15.68,15.68,0,0,0-1.5-1.94l-23.76,23.76a17.6,17.6,0,0,0,1.94,1.5Z"/><path class="cls-2" d="M416.49,1014.74a16.82,16.82,0,0,0,14.17-14.17Z"/><path class="cls-2" d="M430,992.79a15.71,15.71,0,0,0-1-2.42L406.29,1013a15.67,15.67,0,0,0,2.42,1Z"/><path class="cls-2" d="M411.55,981.46a16.81,16.81,0,0,0-14.17,14.17Z"/><polygon class="cls-3" points="345.53 1021.58 337.44 1037.75 369.02 1006.18 366.32 1000.78 345.53 1021.58"/><polygon class="cls-3" points="373.68 1015.5 370.99 1010.1 331.55 1049.54 323.47 1065.71 373.68 1015.5"/><polygon class="cls-3" points="383 1034.13 380.31 1028.75 340.13 1068.92 348.22 1068.92 383 1034.13"/><polygon class="cls-3" points="378.34 1024.82 375.65 1019.43 326.15 1068.92 334.24 1068.92 378.34 1024.82"/><polygon class="cls-3" points="387.66 1043.45 384.96 1038.06 354.11 1068.92 362.2 1068.92 387.66 1043.45"/><polygon class="cls-3" points="364.36 996.86 361.13 990.39 351.43 1009.79 364.36 996.86"/><polygon class="cls-3" points="382.07 1068.92 400.39 1068.92 394.29 1056.7 382.07 1068.92"/><polygon class="cls-3" points="392.32 1052.77 389.63 1047.38 368.09 1068.92 376.18 1068.92 392.32 1052.77"/><polygon class="cls-3" points="517.82 1023.98 509.07 1026.9 531.85 1026.9 532.82 1023.98 517.82 1023.98"/><polygon class="cls-3" points="530.17 1031.94 531.14 1029.03 502.69 1029.03 493.94 1031.94 530.17 1031.94"/><polygon class="cls-3" points="526.8 1042.03 527.78 1039.11 498.79 1039.11 501.71 1042.03 526.8 1042.03"/><polygon class="cls-3" points="528.49 1036.99 529.46 1034.07 493.75 1034.07 496.66 1036.99 528.49 1036.99"/><polygon class="cls-3" points="525.12 1047.07 526.1 1044.16 503.83 1044.16 506.75 1047.07 525.12 1047.07"/><polygon class="cls-3" points="533.53 1021.86 534.7 1018.36 524.2 1021.86 533.53 1021.86"/><polygon class="cls-3" points="513.92 1054.24 520.53 1060.85 522.73 1054.24 513.92 1054.24"/><polygon class="cls-3" points="523.44 1052.12 524.42 1049.2 508.88 1049.2 511.8 1052.12 523.44 1052.12"/><polygon class="cls-3" points="645.38 1192.75 639.42 1186.8 573.09 1186.8 567.14 1192.75 645.38 1192.75"/><polygon class="cls-3" points="593.69 1166.19 587.74 1172.15 624.78 1172.15 618.82 1166.19 593.69 1166.19"/><polygon class="cls-3" points="635.08 1182.45 629.12 1176.49 583.39 1176.49 577.44 1182.45 635.08 1182.45"/><polygon class="cls-3" points="614.48 1161.85 606.26 1153.63 598.03 1161.85 614.48 1161.85"/><polyline class="cls-4" points="435.46 1048 449.54 1048 449.54 1062.08 463.61 1062.08 463.61 1076.15 477.69 1076.15 477.69 1090.23 491.76 1090.23 491.76 1104.3 505.84 1104.3"/><polyline class="cls-4" points="609.01 1197.73 618.96 1187.77 628.91 1197.73 638.87 1187.77 648.82 1197.73 658.77 1187.77 668.72 1197.73 678.68 1187.77 688.63 1197.73 698.58 1187.77"/><polyline class="cls-4" points="740.18 980.96 754.25 980.96 754.25 995.03 768.33 995.03 768.33 1009.11 782.4 1009.11 782.4 1023.18 796.48 1023.18 796.48 1037.26 810.55 1037.26"/><path class="cls-3" d="M782.63,907.44a26.12,26.12,0,1,1-26.12-26.12A26.12,26.12,0,0,1,782.63,907.44Z"/><polygon class="cls-2" points="674.11 918.93 603.71 962.7 595.15 870.42 674.11 918.93"/><polygon class="cls-2" points="378.9 1134.94 308.51 1178.71 299.94 1086.43 378.9 1134.94"/><path class="cls-4" d="M675.55,911.59a22.13,22.13,0,1,1-30.48-7.11A22.13,22.13,0,0,1,675.55,911.59Z"/><path class="cls-4" d="M409.09,1052.63a29.36,29.36,0,1,1-40.44-9.44A29.36,29.36,0,0,1,409.09,1052.63Z"/><polygon class="cls-4" points="479.13 980.16 457.57 958.6 489.91 947.82 479.13 980.16"/><rect class="cls-4" x="557.53" y="912.1" width="22.35" height="22.35"/><rect class="cls-6" x="869.27" y="902.88" width="29.22" height="29.22"/><rect class="cls-6" x="575.86" y="978.21" width="20.66" height="20.67"/><polygon class="cls-6" points="434.17 944.91 419.56 959.52 404.95 944.91 419.56 930.3 434.17 944.91"/><polyline class="cls-4" points="739.28 942.7 744.68 922.53 764.84 927.94 770.25 907.77 790.41 913.18 795.81 893.01 815.97 898.42 821.38 878.25 841.54 883.66"/><polygon class="cls-5" points="795.89 1141.9 791.85 1134.89 772.37 1207.56 779.39 1203.51 795.89 1141.9"/><polygon class="cls-5" points="787.81 1133.81 780.8 1137.86 764.29 1199.47 768.34 1206.48 787.81 1133.81"/><polygon class="cls-5" points="750.28 1175.21 754.33 1182.22 763.55 1147.81 756.54 1151.86 750.28 1175.21"/><polygon class="cls-5" points="775.68 1140.81 768.67 1144.86 757.28 1187.34 761.34 1194.35 775.68 1140.81"/><polygon class="cls-5" points="809.9 1166.16 805.85 1159.15 796.63 1193.56 803.65 1189.51 809.9 1166.16"/><polygon class="cls-5" points="808.76 1186.55 818.45 1180.96 812.85 1171.28 808.76 1186.55"/><polygon class="cls-5" points="751.42 1154.82 741.74 1160.41 747.33 1170.09 751.42 1154.82"/><polygon class="cls-5" points="802.9 1154.03 798.85 1147.02 784.5 1200.56 791.52 1196.51 802.9 1154.03"/><polyline class="cls-4" points="279.58 1165.68 294.34 1150.93 309.1 1165.68 323.86 1150.93 338.62 1165.68 353.38 1150.93 368.14 1165.68 382.9 1150.93 397.66 1165.68 412.42 1150.93"/><path class="cls-5" d="M730.92,1124.65a30,30,0,1,1-30-30A30,30,0,0,1,730.92,1124.65Z"/><polygon class="cls-4" points="701.47 1126.84 666.24 1091.6 719.09 1073.98 701.47 1126.84"/><path class="cls-5" d="M509.6,1186.19a28.09,28.09,0,1,1-28.09-28.08A28.09,28.09,0,0,1,509.6,1186.19Z"/><polygon class="cls-4" points="482 1188.24 448.98 1155.22 498.51 1138.71 482 1188.24"/><polygon class="cls-3" points="860.39 1001.58 852.31 1017.75 883.89 986.18 881.19 980.78 860.39 1001.58"/><polygon class="cls-3" points="888.54 995.5 885.85 990.1 846.41 1029.54 838.33 1045.71 888.54 995.5"/><polygon class="cls-3" points="897.87 1014.13 895.17 1008.75 855 1048.92 863.08 1048.92 897.87 1014.13"/><polygon class="cls-3" points="893.21 1004.82 890.51 999.43 841.02 1048.92 849.1 1048.92 893.21 1004.82"/><polygon class="cls-3" points="902.53 1023.46 899.83 1018.06 868.98 1048.92 877.06 1048.92 902.53 1023.46"/><polygon class="cls-3" points="879.23 976.86 875.99 970.39 866.29 989.79 879.23 976.86"/><polygon class="cls-3" points="896.94 1048.92 915.26 1048.92 909.15 1036.7 896.94 1048.92"/><polygon class="cls-3" points="907.19 1032.77 904.49 1027.38 882.96 1048.92 891.04 1048.92 907.19 1032.77"/><polygon class="cls-2" points="938.77 1128.94 868.37 1172.71 859.81 1080.43 938.77 1128.94"/><path class="cls-4" d="M924,1032.63a29.36,29.36,0,1,1-40.44-9.44A29.37,29.37,0,0,1,924,1032.63Z"/><polygon class="cls-5" points="677.27 1050.57 629.29 1068.04 611.82 1020.05 659.81 1002.59 677.27 1050.57"/><polygon class="cls-4" points="684.88 1020.63 644.55 1035.31 629.87 994.98 670.2 980.31 684.88 1020.63"/><polyline class="cls-4" points="839.44 1159.69 854.2 1144.93 868.96 1159.69 883.72 1144.93 898.48 1159.69 913.24 1144.93 928 1159.69 942.76 1144.93 957.52 1159.69 972.28 1144.93"/><line class="cls-4" x1="524.23" y1="974.91" x2="505.87" y2="993.27"/><line class="cls-4" x1="524.23" y1="993.27" x2="505.87" y2="974.91"/><line class="cls-4" x1="850.2" y1="976.73" x2="831.84" y2="995.09"/><line class="cls-4" x1="850.2" y1="995.09" x2="831.84" y2="976.73"/><line class="cls-4" x1="639.05" y1="1115.47" x2="620.69" y2="1133.83"/><line class="cls-4" x1="639.05" y1="1133.83" x2="620.69" y2="1115.47"/><circle class="cls-6" cx="803.3" cy="957.53" r="11.59"/><path class="cls-6" d="M554.33,1138.71a11.59,11.59,0,1,1-11.59-11.58A11.59,11.59,0,0,1,554.33,1138.71Z"/><path class="cls-4" d="M785.28,1181.87a22.13,22.13,0,1,1-30.48-7.1A22.14,22.14,0,0,1,785.28,1181.87Z"/><polygon class="cls-2" points="173.14 1145.72 141.14 1113.73 189.14 1097.73 173.14 1145.72"/><polygon class="cls-2" points="154.51 753.05 131.24 776.33 107.96 753.05 131.24 729.78 154.51 753.05"/><polygon class="cls-6" points="201.25 790.67 179.87 790.67 190.56 769.29 201.25 790.67"/><path class="cls-2" d="M22,985.74A27.42,27.42,0,0,0,17.91,984l-36,36a27.75,27.75,0,0,0,1.73,4.08Z"/><path class="cls-2" d="M-18.95,1016.63l33.52-33.52a29.52,29.52,0,0,0-5.27-.55l-28.8,28.8A28.63,28.63,0,0,0-18.95,1016.63Z"/><path class="cls-2" d="M36.81,1005.36,3.3,1038.88a29.33,29.33,0,0,0,5.27.55l28.8-28.8A28.44,28.44,0,0,0,36.81,1005.36Z"/><path class="cls-2" d="M28,989.85a30.15,30.15,0,0,0-3.27-2.55l-39.43,39.44a28.87,28.87,0,0,0,2.54,3.27Z"/><path class="cls-2" d="M32.62,995.25A29,29,0,0,0,30.08,992l-40.17,40.16a28.81,28.81,0,0,0,3.28,2.55Z"/><path class="cls-2" d="M13.11,1039.13a28.45,28.45,0,0,0,24-24Z"/><path class="cls-2" d="M35.92,1002a28.33,28.33,0,0,0-1.73-4.09l-38.33,38.33A27.87,27.87,0,0,0,0,1038Z"/><path class="cls-2" d="M4.76,982.86a28.45,28.45,0,0,0-24,23.95Z"/><polygon class="cls-5" points="25.42 1080.13 12.59 1084.41 45.99 1084.41 47.42 1080.13 25.42 1080.13"/><polygon class="cls-5" points="43.52 1091.8 44.95 1087.53 3.23 1087.53 -9.59 1091.8 43.52 1091.8"/><polygon class="cls-5" points="38.6 1106.59 40.02 1102.31 -2.48 1102.31 1.8 1106.59 38.6 1106.59"/><polygon class="cls-5" points="41.06 1099.19 42.49 1094.92 -9.87 1094.92 -5.59 1099.19 41.06 1099.19"/><polygon class="cls-5" points="36.13 1113.98 37.56 1109.71 4.92 1109.71 9.2 1113.98 36.13 1113.98"/><polygon class="cls-5" points="48.46 1077.01 50.17 1071.88 34.77 1077.01 48.46 1077.01"/><polygon class="cls-5" points="19.71 1124.5 29.4 1134.19 32.63 1124.5 19.71 1124.5"/><polygon class="cls-5" points="33.67 1121.38 35.09 1117.1 12.31 1117.1 16.59 1121.38 33.67 1121.38"/><polygon class="cls-3" points="15.99 905.53 21.95 899.58 -56.29 899.58 -50.34 905.53 15.99 905.53"/><polygon class="cls-3" points="21.95 895.23 15.99 889.28 -50.34 889.28 -56.29 895.23 21.95 895.23"/><polygon class="cls-3" points="-29.74 868.68 -35.7 874.63 1.35 874.63 -4.61 868.68 -29.74 868.68"/><polygon class="cls-3" points="11.65 884.93 5.69 878.98 -40.04 878.98 -45.99 884.93 11.65 884.93"/><polygon class="cls-3" points="-4.61 926.13 1.35 920.17 -35.7 920.17 -29.74 926.13 -4.61 926.13"/><polygon class="cls-3" points="5.69 915.83 11.65 909.88 -45.99 909.88 -40.04 915.83 5.69 915.83"/><polyline class="cls-4" points="-14.42 900.21 -4.47 890.25 5.48 900.21 15.44 890.25 25.39 900.21 35.34 890.25 45.29 900.21 55.25 890.25 65.2 900.21 75.15 890.25"/><polyline class="cls-4" points="116.75 683.44 130.82 683.44 130.82 697.51 144.9 697.51 144.9 711.59 158.97 711.59 158.97 725.66 173.04 725.66 173.04 739.74 187.12 739.74"/><path class="cls-3" d="M159.2,609.92a26.12,26.12,0,1,1-26.12-26.12A26.12,26.12,0,0,1,159.2,609.92Z"/><polygon class="cls-2" points="50.68 621.41 -19.72 665.18 -28.28 572.9 50.68 621.41"/><path class="cls-4" d="M52.12,614.07A22.13,22.13,0,1,1,21.64,607,22.14,22.14,0,0,1,52.12,614.07Z"/><rect class="cls-6" x="245.84" y="605.36" width="29.22" height="29.22"/><polygon class="cls-6" points="110.46 967.27 95.85 981.89 81.23 967.27 95.85 952.66 110.46 967.27"/><rect class="cls-6" x="54.62" y="1146.73" width="29.22" height="29.22"/><polyline class="cls-4" points="115.85 645.18 121.25 625.01 141.41 630.42 146.81 610.25 166.98 615.66 172.38 595.5 192.54 600.9 197.94 580.74 218.11 586.14"/><polyline class="cls-4" points="60.39 1009.44 74.84 1001.1 83.19 1015.55 97.64 1007.21 105.98 1021.66 120.43 1013.32 128.78 1027.77 143.23 1019.42 151.57 1033.88"/><polygon class="cls-5" points="172.46 844.38 168.41 837.37 148.94 910.04 155.96 905.99 172.46 844.38"/><polygon class="cls-5" points="164.38 836.29 157.37 840.34 140.86 901.95 144.91 908.96 164.38 836.29"/><polygon class="cls-5" points="126.85 877.69 130.9 884.7 140.12 850.29 133.11 854.34 126.85 877.69"/><polygon class="cls-5" points="152.25 843.29 145.24 847.34 133.85 889.82 137.91 896.83 152.25 843.29"/><polygon class="cls-5" points="186.47 868.64 182.42 861.63 173.2 896.04 180.22 891.99 186.47 868.64"/><polygon class="cls-5" points="185.33 889.03 195.01 883.44 189.42 873.76 185.33 889.03"/><polygon class="cls-5" points="127.99 857.3 118.31 862.89 123.9 872.58 127.99 857.3"/><polygon class="cls-5" points="179.47 856.51 175.42 849.5 161.07 903.04 168.09 898.99 179.47 856.51"/><path class="cls-5" d="M271,1045.25a40.32,40.32,0,1,1-40.32-40.32A40.32,40.32,0,0,1,271,1045.25Z"/><rect class="cls-3" x="228.42" y="924.49" width="44.24" height="44.24"/><polygon class="cls-4" points="261.37 1068.19 213.97 1020.79 285.07 997.09 261.37 1068.19"/><path class="cls-5" d="M107.49,827.13a30,30,0,1,1-30-30A30,30,0,0,1,107.49,827.13Z"/><polygon class="cls-4" points="78.04 829.32 42.81 794.08 95.66 776.47 78.04 829.32"/><polygon class="cls-4" points="180.97 1096.12 135.65 1141.43 112.99 1073.45 180.97 1096.12"/><polygon class="cls-3" points="236.96 704.06 228.88 720.23 260.46 688.66 257.76 683.27 236.96 704.06"/><polygon class="cls-3" points="265.11 697.98 262.42 692.58 222.98 732.02 214.9 748.19 265.11 697.98"/><polygon class="cls-3" points="274.44 716.62 271.74 711.23 231.57 751.4 239.65 751.4 274.44 716.62"/><polygon class="cls-3" points="269.77 707.3 267.08 701.91 217.59 751.4 225.67 751.4 269.77 707.3"/><polygon class="cls-3" points="279.1 725.94 276.4 720.54 245.55 751.4 253.63 751.4 279.1 725.94"/><polygon class="cls-3" points="255.8 679.34 252.56 672.87 242.86 692.27 255.8 679.34"/><polygon class="cls-3" points="273.51 751.4 291.83 751.4 285.72 739.19 273.51 751.4"/><polygon class="cls-3" points="283.75 735.25 281.06 729.87 259.53 751.4 267.61 751.4 283.75 735.25"/><polygon class="cls-2" points="315.34 831.43 244.94 875.19 236.38 782.91 315.34 831.43"/><path class="cls-4" d="M300.52,735.11a29.37,29.37,0,1,1-40.44-9.44A29.37,29.37,0,0,1,300.52,735.11Z"/><rect class="cls-4" x="250.54" y="909.43" width="37.18" height="37.18"/><polygon class="cls-5" points="53.84 753.05 5.86 770.52 -11.61 722.53 36.38 705.07 53.84 753.05"/><polygon class="cls-4" points="61.45 723.12 21.12 737.79 6.44 697.47 46.77 682.79 61.45 723.12"/><polyline class="cls-4" points="216.01 862.17 230.77 847.41 245.53 862.17 260.29 847.41 275.05 862.17 289.81 847.41 304.57 862.17 319.33 847.41 334.09 862.17 348.85 847.41"/><line class="cls-4" x1="195.65" y1="972.71" x2="177.29" y2="991.06"/><line class="cls-4" x1="195.65" y1="991.06" x2="177.29" y2="972.71"/><line class="cls-4" x1="226.77" y1="679.22" x2="208.41" y2="697.57"/><line class="cls-4" x1="226.77" y1="697.57" x2="208.41" y2="679.22"/><line class="cls-4" x1="96.14" y1="1107.53" x2="77.79" y2="1125.89"/><line class="cls-4" x1="96.14" y1="1125.89" x2="77.79" y2="1107.53"/><line class="cls-4" x1="15.62" y1="817.95" x2="-2.74" y2="836.31"/><line class="cls-4" x1="15.62" y1="836.31" x2="-2.74" y2="817.95"/><line class="cls-4" x1="240.75" y1="1126.42" x2="222.39" y2="1144.78"/><line class="cls-4" x1="240.75" y1="1144.78" x2="222.39" y2="1126.42"/><path class="cls-6" d="M54.07,938.7a11.59,11.59,0,1,1-11.58-11.59A11.58,11.58,0,0,1,54.07,938.7Z"/><circle class="cls-6" cx="179.87" cy="660.01" r="11.59" transform="translate(-146.83 58.98) rotate(-13.28)"/><path class="cls-4" d="M161.84,884.35a22.13,22.13,0,1,1-30.47-7.1A22.12,22.12,0,0,1,161.84,884.35Z"/><circle class="cls-5" cx="1002.67" cy="460.21" r="40.32" transform="translate(531.72 1457.88) rotate(-89.38)"/><rect class="cls-3" x="920.42" y="329.45" width="44.24" height="44.24"/><polygon class="cls-6" points="1209.63 185.59 1188.24 185.59 1198.93 164.21 1209.63 185.59"/><polygon class="cls-6" points="1034.13 354.35 1012.75 354.35 1023.44 332.97 1034.13 354.35"/><polygon class="cls-4" points="1003.37 463.15 955.97 415.75 1027.07 392.05 1003.37 463.15"/><path class="cls-2" d="M1268.87,390.7a28.33,28.33,0,0,0-4.09-1.73l-36,36a28.33,28.33,0,0,0,1.73,4.09Z"/><path class="cls-2" d="M1227.91,421.59l33.52-33.52a29.52,29.52,0,0,0-5.27-.55l-28.8,28.8A28.63,28.63,0,0,0,1227.91,421.59Z"/><path class="cls-2" d="M1274.81,394.81a28.87,28.87,0,0,0-3.27-2.54l-39.43,39.43a28.87,28.87,0,0,0,2.54,3.27Z"/><path class="cls-2" d="M1279.48,400.21a29,29,0,0,0-2.54-3.28l-40.17,40.17a29.9,29.9,0,0,0,3.28,2.54Z"/><path class="cls-2" d="M1282.78,407a28.33,28.33,0,0,0-1.73-4.09l-38.33,38.33a27.87,27.87,0,0,0,4.09,1.73Z"/><path class="cls-2" d="M1251.62,387.82a28.45,28.45,0,0,0-24,24Z"/><path class="cls-2" d="M1045.19,90.6a17.71,17.71,0,0,0-2.42-1l-21.28,21.27a16.71,16.71,0,0,0,1,2.42Z"/><path class="cls-2" d="M1021,108.87l19.83-19.82a16,16,0,0,0-3.12-.33l-17,17A17.63,17.63,0,0,0,1021,108.87Z"/><path class="cls-2" d="M1054,102.2,1034.12,122a16.84,16.84,0,0,0,3.12.32l17-17A17,17,0,0,0,1054,102.2Z"/><path class="cls-2" d="M1048.7,93a16.6,16.6,0,0,0-1.93-1.5l-23.33,23.32a16,16,0,0,0,1.51,1.94Z"/><path class="cls-2" d="M1051.46,96.23a15.68,15.68,0,0,0-1.5-1.94l-23.76,23.76a17.6,17.6,0,0,0,1.94,1.5Z"/><path class="cls-2" d="M1039.92,122.18A16.81,16.81,0,0,0,1054.09,108Z"/><path class="cls-2" d="M1053.42,100.23a15.71,15.71,0,0,0-1-2.42l-22.67,22.67a15.67,15.67,0,0,0,2.42,1Z"/><path class="cls-2" d="M1035,88.9a16.82,16.82,0,0,0-14.17,14.17Z"/><polygon class="cls-3" points="968.96 129.02 960.88 145.19 992.45 113.62 989.76 108.23 968.96 129.02"/><polygon class="cls-3" points="997.11 122.94 994.42 117.55 954.98 156.98 946.9 173.15 997.11 122.94"/><polygon class="cls-3" points="1006.43 141.58 1003.74 136.19 963.56 176.36 971.65 176.36 1006.43 141.58"/><polygon class="cls-3" points="1001.77 132.26 999.08 126.87 949.58 176.36 957.67 176.36 1001.77 132.26"/><polygon class="cls-3" points="1011.09 150.9 1008.4 145.51 977.54 176.36 985.63 176.36 1011.09 150.9"/><polygon class="cls-3" points="987.79 104.3 984.56 97.83 974.86 117.23 987.79 104.3"/><polygon class="cls-3" points="1005.5 176.36 1023.82 176.36 1017.72 164.15 1005.5 176.36"/><polygon class="cls-3" points="1015.75 160.22 1013.06 154.83 991.52 176.36 999.61 176.36 1015.75 160.22"/><polygon class="cls-3" points="1141.25 131.42 1132.5 134.34 1155.28 134.34 1156.25 131.42 1141.25 131.42"/><polygon class="cls-3" points="1153.6 139.38 1154.57 136.47 1126.12 136.47 1117.37 139.38 1153.6 139.38"/><polygon class="cls-3" points="1150.23 149.47 1151.21 146.56 1122.22 146.56 1125.14 149.47 1150.23 149.47"/><polygon class="cls-3" points="1151.92 144.43 1152.89 141.51 1117.18 141.51 1120.1 144.43 1151.92 144.43"/><polygon class="cls-3" points="1148.56 154.52 1149.53 151.6 1127.27 151.6 1130.18 154.52 1148.56 154.52"/><polygon class="cls-3" points="1156.96 129.3 1158.13 125.8 1147.63 129.3 1156.96 129.3"/><polygon class="cls-3" points="1137.35 161.69 1143.96 168.29 1146.16 161.69 1137.35 161.69"/><polygon class="cls-3" points="1146.87 159.56 1147.85 156.64 1132.31 156.64 1135.23 159.56 1146.87 159.56"/><polygon class="cls-5" points="1290.39 496.76 1291.81 492.49 1250.1 492.49 1237.27 496.76 1290.39 496.76"/><polygon class="cls-5" points="1285.46 511.55 1286.88 507.28 1244.39 507.28 1248.66 511.55 1285.46 511.55"/><polygon class="cls-5" points="1287.92 504.16 1289.35 499.88 1236.99 499.88 1241.27 504.16 1287.92 504.16"/><polygon class="cls-3" points="1262.85 310.49 1268.81 304.54 1190.57 304.54 1196.52 310.49 1262.85 310.49"/><polygon class="cls-3" points="1268.81 300.19 1262.85 294.24 1196.52 294.24 1190.57 300.19 1268.81 300.19"/><polygon class="cls-3" points="1217.12 273.64 1211.17 279.59 1248.21 279.59 1242.26 273.64 1217.12 273.64"/><polygon class="cls-3" points="1258.51 289.89 1252.56 283.94 1206.82 283.94 1200.87 289.89 1258.51 289.89"/><polygon class="cls-3" points="1242.26 331.09 1248.21 325.13 1211.17 325.13 1217.12 331.09 1242.26 331.09"/><polygon class="cls-3" points="1221.46 335.44 1229.69 343.66 1237.91 335.44 1221.46 335.44"/><polygon class="cls-3" points="1237.91 269.3 1229.69 261.07 1221.46 269.3 1237.91 269.3"/><polygon class="cls-3" points="1252.56 320.79 1258.51 314.84 1200.87 314.84 1206.82 320.79 1252.56 320.79"/><polyline class="cls-4" points="1058.89 155.44 1072.97 155.44 1072.97 169.52 1087.04 169.52 1087.04 183.59 1101.12 183.59 1101.12 197.67 1115.19 197.67 1115.19 211.74 1129.27 211.74"/><polyline class="cls-4" points="1232.44 305.17 1242.39 295.21 1252.34 305.17 1262.3 295.21 1272.25 305.17 1282.2 295.21 1292.15 305.17 1302.11 295.21 1312.06 305.17 1322.01 295.21"/><polyline class="cls-4" points="1075.74 512.79 1075.74 496.93 1091.6 496.93 1091.6 481.08 1107.45 481.08 1107.45 465.23 1123.31 465.23 1123.31 449.37 1139.16 449.37 1139.16 433.52"/><polygon class="cls-2" points="1297.54 26.37 1227.14 70.14 1218.58 -22.14 1297.54 26.37"/><polygon class="cls-2" points="1002.33 242.39 931.94 286.15 923.37 193.87 1002.33 242.39"/><polygon class="cls-2" points="1135.85 388.71 1081.96 422.21 1075.4 351.57 1135.85 388.71"/><path class="cls-4" d="M1137,383.09a16.94,16.94,0,1,1-23.33-5.44A16.94,16.94,0,0,1,1137,383.09Z"/><path class="cls-4" d="M1032.52,160.07a29.37,29.37,0,1,1-40.44-9.44A29.36,29.36,0,0,1,1032.52,160.07Z"/><polygon class="cls-4" points="1102.57 87.6 1081.01 66.04 1113.35 55.26 1102.57 87.6"/><rect class="cls-4" x="1180.96" y="19.54" width="22.35" height="22.35"/><rect class="cls-4" x="942.54" y="314.39" width="37.18" height="37.18"/><rect class="cls-6" x="1172.44" y="408.3" width="29.22" height="29.22"/><rect class="cls-6" x="1199.29" y="85.65" width="20.67" height="20.67"/><polygon class="cls-6" points="1057.6 52.35 1042.99 66.96 1028.38 52.35 1042.99 37.74 1057.6 52.35"/><rect class="cls-6" x="946.26" y="592.5" width="29.22" height="29.22"/><path class="cls-3" d="M1187.05,487.72a20.88,20.88,0,1,1-20.88-20.88A20.88,20.88,0,0,1,1187.05,487.72Z"/><polyline class="cls-4" points="1152.4 515.91 1156.71 499.79 1172.83 504.11 1177.15 487.99 1193.27 492.31 1197.59 476.19 1213.71 480.51 1218.03 464.39 1234.14 468.71"/><polygon class="cls-4" points="1012.99 623.88 991.43 602.32 1023.77 591.54 1012.99 623.88"/><rect class="cls-4" x="1180.96" y="574.4" width="22.35" height="22.35"/><polygon class="cls-5" points="1119.01 533.25 1113.22 523.22 1085.37 627.14 1095.4 621.35 1119.01 533.25"/><polygon class="cls-5" points="1107.45 521.67 1097.42 527.46 1073.82 615.56 1079.61 625.59 1107.45 521.67"/><polygon class="cls-5" points="1053.79 580.87 1059.58 590.9 1072.76 541.7 1062.73 547.49 1053.79 580.87"/><polygon class="cls-5" points="1090.11 531.69 1080.08 537.48 1063.8 598.22 1069.59 608.25 1090.11 531.69"/><polygon class="cls-5" points="1139.04 567.94 1133.25 557.91 1120.06 607.11 1130.1 601.32 1139.04 567.94"/><polygon class="cls-5" points="1137.41 597.1 1151.26 589.1 1143.26 575.25 1137.41 597.1"/><polygon class="cls-5" points="1055.42 551.72 1041.57 559.71 1049.56 573.56 1055.42 551.72"/><polygon class="cls-5" points="1129.03 550.59 1123.23 540.56 1102.72 617.13 1112.75 611.33 1129.03 550.59"/><polyline class="cls-4" points="903.01 273.13 917.77 258.37 932.53 273.13 947.29 258.37 962.05 273.13 976.81 258.37 991.57 273.13 1006.33 258.37 1021.09 273.13 1035.85 258.37"/><path class="cls-5" d="M1133,293.63a28.09,28.09,0,1,1-28.09-28.08A28.09,28.09,0,0,1,1133,293.63Z"/><polygon class="cls-4" points="1105.43 295.68 1072.41 262.66 1121.94 246.15 1105.43 295.68"/><polygon class="cls-5" points="1300.7 158.01 1252.72 175.48 1235.26 127.49 1283.24 110.03 1300.7 158.01"/><line class="cls-4" x1="1147.66" y1="82.35" x2="1129.3" y2="100.71"/><line class="cls-4" x1="1147.66" y1="100.71" x2="1129.3" y2="82.35"/><line class="cls-4" x1="1262.48" y1="222.91" x2="1244.12" y2="241.27"/><line class="cls-4" x1="1262.48" y1="241.27" x2="1244.12" y2="222.91"/><line class="cls-4" x1="1014.68" y1="541.51" x2="996.33" y2="559.87"/><line class="cls-4" x1="1014.68" y1="559.87" x2="996.33" y2="541.51"/><path class="cls-6" d="M1186.92,365.08a11.59,11.59,0,1,1-11.59-11.58A11.59,11.59,0,0,1,1186.92,365.08Z"/><path class="cls-6" d="M1177.76,246.15a11.59,11.59,0,1,1-11.59-11.58A11.59,11.59,0,0,1,1177.76,246.15Z"/><circle class="cls-5" cx="379.24" cy="757.73" r="40.32" transform="translate(-9.44 4.8) rotate(-0.72)"/><polygon class="cls-2" points="796.57 848.21 764.57 816.21 812.57 800.21 796.57 848.21"/><polygon class="cls-2" points="777.94 455.53 754.67 478.81 731.39 455.53 754.67 432.26 777.94 455.53"/><rect class="cls-3" x="296.99" y="626.97" width="44.24" height="44.24"/><polygon class="cls-6" points="586.19 483.11 564.81 483.11 575.5 461.73 586.19 483.11"/><polygon class="cls-6" points="824.68 493.15 803.3 493.15 813.99 471.77 824.68 493.15"/><polygon class="cls-6" points="410.7 651.87 389.32 651.87 400.01 630.49 410.7 651.87"/><polygon class="cls-4" points="379.94 760.67 332.54 713.27 403.64 689.57 379.94 760.67"/><path class="cls-2" d="M645.44,688.22a28,28,0,0,0-4.1-1.73l-36,36a28.33,28.33,0,0,0,1.73,4.09Z"/><path class="cls-2" d="M604.48,719.11,638,685.59a29.52,29.52,0,0,0-5.27-.55l-28.8,28.8A28.63,28.63,0,0,0,604.48,719.11Z"/><path class="cls-2" d="M660.25,707.84l-33.52,33.51a27.79,27.79,0,0,0,5.27.56l28.8-28.8A29.42,29.42,0,0,0,660.25,707.84Z"/><path class="cls-2" d="M651.38,692.33a28.87,28.87,0,0,0-3.27-2.54l-39.43,39.43a28.87,28.87,0,0,0,2.54,3.27Z"/><path class="cls-2" d="M656.05,697.73a29,29,0,0,0-2.54-3.28l-40.17,40.17a29.9,29.9,0,0,0,3.28,2.54Z"/><path class="cls-2" d="M636.54,741.61a28.45,28.45,0,0,0,24-24Z"/><path class="cls-2" d="M659.35,704.49a28.33,28.33,0,0,0-1.73-4.09l-38.33,38.33a27.87,27.87,0,0,0,4.09,1.73Z"/><path class="cls-2" d="M628.19,685.34a28.45,28.45,0,0,0-24,24Z"/><path class="cls-2" d="M421.75,388.12a16.71,16.71,0,0,0-2.42-1l-21.27,21.27a16.71,16.71,0,0,0,1,2.42Z"/><path class="cls-2" d="M397.53,406.39l19.82-19.82a15.92,15.92,0,0,0-3.11-.33l-17,17A17.73,17.73,0,0,0,397.53,406.39Z"/><path class="cls-2" d="M430.52,399.72l-19.83,19.84a16.82,16.82,0,0,0,3.11.32l17-17A17,17,0,0,0,430.52,399.72Z"/><path class="cls-2" d="M425.27,390.55a16.6,16.6,0,0,0-1.93-1.5L400,412.37a16.71,16.71,0,0,0,1.5,1.94Z"/><path class="cls-2" d="M428,393.75a15.68,15.68,0,0,0-1.5-1.94l-23.76,23.76a17.6,17.6,0,0,0,1.94,1.5Z"/><path class="cls-2" d="M416.49,419.7a16.81,16.81,0,0,0,14.17-14.17Z"/><path class="cls-2" d="M430,397.75a15.71,15.71,0,0,0-1-2.42L406.29,418a15.67,15.67,0,0,0,2.42,1Z"/><path class="cls-2" d="M411.55,386.42a16.82,16.82,0,0,0-14.17,14.17Z"/><polygon class="cls-3" points="345.53 426.54 337.44 442.71 369.02 411.14 366.32 405.75 345.53 426.54"/><polygon class="cls-3" points="373.68 420.46 370.99 415.06 331.55 454.5 323.47 470.67 373.68 420.46"/><polygon class="cls-3" points="383 439.1 380.31 433.71 340.13 473.88 348.22 473.88 383 439.1"/><polygon class="cls-3" points="378.34 429.78 375.65 424.39 326.15 473.88 334.24 473.88 378.34 429.78"/><polygon class="cls-3" points="387.66 448.42 384.96 443.03 354.11 473.88 362.2 473.88 387.66 448.42"/><polygon class="cls-3" points="364.36 401.82 361.13 395.35 351.43 414.75 364.36 401.82"/><polygon class="cls-3" points="382.07 473.88 400.39 473.88 394.29 461.67 382.07 473.88"/><polygon class="cls-3" points="392.32 457.74 389.63 452.35 368.09 473.88 376.18 473.88 392.32 457.74"/><polygon class="cls-3" points="517.82 428.94 509.07 431.86 531.85 431.86 532.82 428.94 517.82 428.94"/><polygon class="cls-3" points="530.17 436.9 531.14 433.99 502.69 433.99 493.94 436.9 530.17 436.9"/><polygon class="cls-3" points="526.8 446.99 527.78 444.07 498.79 444.07 501.71 446.99 526.8 446.99"/><polygon class="cls-3" points="528.49 441.95 529.46 439.03 493.75 439.03 496.66 441.95 528.49 441.95"/><polygon class="cls-3" points="525.12 452.04 526.1 449.12 503.83 449.12 506.75 452.04 525.12 452.04"/><polygon class="cls-3" points="533.53 426.82 534.7 423.32 524.2 426.82 533.53 426.82"/><polygon class="cls-3" points="513.92 459.21 520.53 465.81 522.73 459.21 513.92 459.21"/><polygon class="cls-3" points="523.44 457.08 524.42 454.16 508.88 454.16 511.8 457.08 523.44 457.08"/><polygon class="cls-5" points="648.85 782.61 636.02 786.89 669.42 786.89 670.85 782.61 648.85 782.61"/><polygon class="cls-5" points="666.96 794.28 668.38 790.01 626.66 790.01 613.84 794.28 666.96 794.28"/><polygon class="cls-5" points="662.03 809.07 663.45 804.79 620.96 804.79 625.23 809.07 662.03 809.07"/><polygon class="cls-5" points="664.49 801.68 665.92 797.4 613.56 797.4 617.84 801.68 664.49 801.68"/><polygon class="cls-5" points="659.56 816.47 660.99 812.19 628.35 812.19 632.63 816.47 659.56 816.47"/><polygon class="cls-5" points="671.89 779.5 673.6 774.36 658.2 779.5 671.89 779.5"/><polygon class="cls-5" points="643.14 826.98 652.83 836.67 656.06 826.98 643.14 826.98"/><polygon class="cls-5" points="657.1 823.86 658.52 819.58 635.74 819.58 640.02 823.86 657.1 823.86"/><polygon class="cls-3" points="639.42 608.01 645.38 602.06 567.14 602.06 573.09 608.01 639.42 608.01"/><polygon class="cls-3" points="645.38 597.71 639.42 591.76 573.09 591.76 567.14 597.71 645.38 597.71"/><polygon class="cls-3" points="593.69 571.16 587.74 577.11 624.78 577.11 618.82 571.16 593.69 571.16"/><polygon class="cls-3" points="635.08 587.41 629.12 581.46 583.39 581.46 577.44 587.41 635.08 587.41"/><polygon class="cls-3" points="618.82 628.61 624.78 622.65 587.74 622.65 593.69 628.61 618.82 628.61"/><polygon class="cls-3" points="598.03 632.96 606.26 641.18 614.48 632.96 598.03 632.96"/><polygon class="cls-3" points="614.48 566.82 606.26 558.59 598.03 566.82 614.48 566.82"/><polygon class="cls-3" points="629.12 618.31 635.08 612.36 577.44 612.36 583.39 618.31 629.12 618.31"/><polyline class="cls-4" points="435.46 452.96 449.54 452.96 449.54 467.04 463.61 467.04 463.61 481.11 477.69 481.11 477.69 495.19 491.76 495.19 491.76 509.26 505.84 509.26"/><polyline class="cls-4" points="609.01 602.69 618.96 592.74 628.91 602.69 638.87 592.74 648.82 602.69 658.77 592.74 668.72 602.69 678.68 592.74 688.63 602.69 698.58 592.74"/><polyline class="cls-4" points="740.18 385.92 754.25 385.92 754.25 399.99 768.33 399.99 768.33 414.07 782.4 414.07 782.4 428.14 796.48 428.14 796.48 442.22 810.55 442.22"/><polyline class="cls-4" points="452.31 810.3 452.31 794.45 468.17 794.45 468.17 778.6 484.02 778.6 484.02 762.75 499.87 762.75 499.87 746.89 515.73 746.89 515.73 731.04"/><path class="cls-3" d="M782.63,312.4a26.12,26.12,0,1,1-26.12-26.12A26.12,26.12,0,0,1,782.63,312.4Z"/><polygon class="cls-2" points="674.11 323.89 603.71 367.66 595.15 275.38 674.11 323.89"/><polygon class="cls-2" points="378.9 539.91 308.51 583.67 299.94 491.39 378.9 539.91"/><path class="cls-4" d="M675.55,316.55a22.13,22.13,0,1,1-30.48-7.1A22.14,22.14,0,0,1,675.55,316.55Z"/><polygon class="cls-2" points="512.41 686.23 458.53 719.73 451.97 649.09 512.41 686.23"/><path class="cls-4" d="M513.52,680.61a16.94,16.94,0,1,1-23.33-5.44A16.94,16.94,0,0,1,513.52,680.61Z"/><path class="cls-4" d="M409.09,457.59a29.37,29.37,0,1,1-40.44-9.44A29.36,29.36,0,0,1,409.09,457.59Z"/><polygon class="cls-4" points="479.13 385.12 457.57 363.56 489.91 352.78 479.13 385.12"/><rect class="cls-4" x="557.53" y="317.06" width="22.35" height="22.35"/><rect class="cls-4" x="319.11" y="611.91" width="37.18" height="37.18"/><rect class="cls-6" x="549.01" y="705.82" width="29.22" height="29.22"/><rect class="cls-6" x="869.27" y="307.84" width="29.22" height="29.22"/><polygon class="cls-6" points="733.89 669.76 719.28 684.37 704.67 669.76 719.28 655.14 733.89 669.76"/><rect class="cls-6" x="575.86" y="383.17" width="20.66" height="20.67"/><polygon class="cls-6" points="434.17 349.87 419.56 364.48 404.95 349.87 419.56 335.26 434.17 349.87"/><rect class="cls-6" x="322.83" y="890.02" width="29.22" height="29.22"/><rect class="cls-6" x="678.05" y="849.21" width="29.22" height="29.22"/><polyline class="cls-4" points="739.28 347.66 744.68 327.49 764.84 332.9 770.25 312.73 790.41 318.14 795.81 297.98 815.97 303.38 821.38 283.21 841.54 288.62"/><path class="cls-3" d="M563.62,785.24a20.88,20.88,0,1,1-20.88-20.88A20.88,20.88,0,0,1,563.62,785.24Z"/><polyline class="cls-4" points="528.97 813.43 533.28 797.31 549.4 801.63 553.72 785.51 569.84 789.83 574.16 773.71 590.28 778.03 594.6 761.91 610.71 766.23"/><polyline class="cls-4" points="683.82 711.92 698.27 703.58 706.62 718.03 721.07 709.69 729.41 724.14 743.86 715.8 752.21 730.25 766.66 721.9 775 736.36"/><polygon class="cls-4" points="389.56 921.4 368 899.84 400.34 889.06 389.56 921.4"/><rect class="cls-4" x="557.53" y="871.92" width="22.35" height="22.35"/><polygon class="cls-5" points="495.58 830.77 489.79 820.74 461.94 924.66 471.98 918.87 495.58 830.77"/><polygon class="cls-5" points="484.02 819.19 473.99 824.98 450.38 913.08 456.18 923.11 484.02 819.19"/><polygon class="cls-5" points="430.35 878.39 436.15 888.42 449.33 839.22 439.3 845.01 430.35 878.39"/><polygon class="cls-5" points="466.68 829.21 456.64 835 440.37 895.74 446.16 905.77 466.68 829.21"/><polygon class="cls-5" points="515.61 865.46 509.82 855.43 496.63 904.63 506.66 898.84 515.61 865.46"/><polygon class="cls-5" points="513.98 894.62 527.83 886.62 519.83 872.77 513.98 894.62"/><polygon class="cls-5" points="431.99 849.24 418.14 857.23 426.13 871.08 431.99 849.24"/><polygon class="cls-5" points="505.6 848.11 499.8 838.08 479.29 914.64 489.32 908.85 505.6 848.11"/><polygon class="cls-5" points="795.89 546.87 791.85 539.85 772.37 612.52 779.39 608.47 795.89 546.87"/><polygon class="cls-5" points="787.81 538.77 780.8 542.82 764.29 604.43 768.34 611.44 787.81 538.77"/><polygon class="cls-5" points="750.28 580.17 754.33 587.18 763.55 552.78 756.54 556.83 750.28 580.17"/><polygon class="cls-5" points="775.68 545.77 768.67 549.82 757.28 592.3 761.34 599.31 775.68 545.77"/><polygon class="cls-5" points="809.9 571.12 805.85 564.11 796.63 598.52 803.65 594.47 809.9 571.12"/><polygon class="cls-5" points="808.76 591.51 818.45 585.92 812.85 576.24 808.76 591.51"/><polygon class="cls-5" points="751.42 559.78 741.74 565.37 747.33 575.05 751.42 559.78"/><polygon class="cls-5" points="802.9 559 798.85 551.98 784.5 605.52 791.52 601.47 802.9 559"/><polyline class="cls-4" points="279.58 570.65 294.34 555.89 309.1 570.65 323.86 555.89 338.62 570.65 353.38 555.89 368.14 570.65 382.9 555.89 397.66 570.65 412.42 555.89"/><path class="cls-5" d="M894.42,747.73a40.32,40.32,0,1,1-40.32-40.32A40.32,40.32,0,0,1,894.42,747.73Z"/><rect class="cls-3" x="851.85" y="626.97" width="44.24" height="44.24"/><polygon class="cls-4" points="884.8 770.67 837.4 723.27 908.5 699.57 884.8 770.67"/><path class="cls-5" d="M730.92,529.61a30,30,0,1,1-30-30A30,30,0,0,1,730.92,529.61Z"/><polygon class="cls-4" points="701.47 531.8 666.24 496.56 719.09 478.95 701.47 531.8"/><path class="cls-5" d="M509.6,591.15a28.09,28.09,0,1,1-28.09-28.08A28.09,28.09,0,0,1,509.6,591.15Z"/><polygon class="cls-4" points="482 593.2 448.98 560.18 498.51 543.67 482 593.2"/><polygon class="cls-4" points="804.4 798.6 759.08 843.91 736.42 775.94 804.4 798.6"/><polygon class="cls-3" points="860.39 406.54 852.31 422.71 883.89 391.14 881.19 385.75 860.39 406.54"/><polygon class="cls-3" points="888.54 400.46 885.85 395.06 846.41 434.5 838.33 450.67 888.54 400.46"/><polygon class="cls-3" points="897.87 419.1 895.17 413.71 855 453.88 863.08 453.88 897.87 419.1"/><polygon class="cls-3" points="893.21 409.78 890.51 404.39 841.02 453.88 849.1 453.88 893.21 409.78"/><polygon class="cls-3" points="902.53 428.42 899.83 423.03 868.98 453.88 877.06 453.88 902.53 428.42"/><polygon class="cls-3" points="879.23 381.82 875.99 375.35 866.29 394.75 879.23 381.82"/><polygon class="cls-3" points="896.94 453.88 915.26 453.88 909.15 441.67 896.94 453.88"/><polygon class="cls-3" points="907.19 437.74 904.49 432.35 882.96 453.88 891.04 453.88 907.19 437.74"/><polygon class="cls-2" points="938.77 533.91 868.37 577.67 859.81 485.39 938.77 533.91"/><path class="cls-4" d="M924,437.59a29.36,29.36,0,1,1-40.44-9.44A29.37,29.37,0,0,1,924,437.59Z"/><rect class="cls-4" x="873.97" y="611.91" width="37.18" height="37.18"/><polygon class="cls-5" points="677.27 455.53 629.29 473 611.82 425.01 659.81 407.55 677.27 455.53"/><polygon class="cls-4" points="684.88 425.6 644.55 440.27 629.87 399.94 670.2 385.27 684.88 425.6"/><polyline class="cls-4" points="839.44 564.65 854.2 549.89 868.96 564.65 883.72 549.89 898.48 564.65 913.24 549.89 928 564.65 942.76 549.89 957.52 564.65 972.28 549.89"/><line class="cls-4" x1="524.23" y1="379.87" x2="505.87" y2="398.23"/><line class="cls-4" x1="524.23" y1="398.23" x2="505.87" y2="379.87"/><line class="cls-4" x1="819.08" y1="675.19" x2="800.72" y2="693.55"/><line class="cls-4" x1="819.08" y1="693.55" x2="800.72" y2="675.19"/><line class="cls-4" x1="850.2" y1="381.7" x2="831.84" y2="400.05"/><line class="cls-4" x1="850.2" y1="400.05" x2="831.84" y2="381.7"/><line class="cls-4" x1="719.57" y1="810.01" x2="701.22" y2="828.37"/><line class="cls-4" x1="719.57" y1="828.37" x2="701.22" y2="810.01"/><line class="cls-4" x1="639.05" y1="520.43" x2="620.69" y2="538.79"/><line class="cls-4" x1="639.05" y1="538.79" x2="620.69" y2="520.43"/><line class="cls-4" x1="864.18" y1="828.9" x2="845.82" y2="847.26"/><line class="cls-4" x1="864.18" y1="847.26" x2="845.82" y2="828.9"/><line class="cls-4" x1="391.25" y1="839.03" x2="372.9" y2="857.39"/><line class="cls-4" x1="391.25" y1="857.39" x2="372.9" y2="839.03"/><path class="cls-6" d="M563.49,662.6A11.59,11.59,0,1,1,551.9,651,11.59,11.59,0,0,1,563.49,662.6Z"/><path class="cls-6" d="M677.5,641.18a11.59,11.59,0,1,1-11.58-11.59A11.58,11.58,0,0,1,677.5,641.18Z"/><circle class="cls-6" cx="803.3" cy="362.49" r="11.59" transform="translate(-61.79 194.26) rotate(-13.28)"/><path class="cls-6" d="M554.33,543.67a11.59,11.59,0,1,1-11.59-11.58A11.59,11.59,0,0,1,554.33,543.67Z"/><path class="cls-4" d="M785.28,586.83a22.13,22.13,0,1,1-30.48-7.1A22.14,22.14,0,0,1,785.28,586.83Z"/><polygon class="cls-2" points="173.14 550.69 141.14 518.69 189.14 502.69 173.14 550.69"/><polygon class="cls-2" points="154.51 158.01 131.24 181.29 107.96 158.01 131.24 134.74 154.51 158.01"/><polygon class="cls-6" points="201.25 195.63 179.87 195.63 190.56 174.25 201.25 195.63"/><path class="cls-2" d="M22,390.7A27.42,27.42,0,0,0,17.91,389l-36,36A28.33,28.33,0,0,0-16.32,429Z"/><path class="cls-2" d="M-18.95,421.59l33.52-33.52a29.52,29.52,0,0,0-5.27-.55l-28.8,28.8A28.63,28.63,0,0,0-18.95,421.59Z"/><path class="cls-2" d="M36.81,410.32,3.3,443.84a28.44,28.44,0,0,0,5.27.55l28.8-28.8A28.54,28.54,0,0,0,36.81,410.32Z"/><path class="cls-2" d="M28,394.81a28.87,28.87,0,0,0-3.27-2.54L-14.75,431.7A28.87,28.87,0,0,0-12.21,435Z"/><path class="cls-2" d="M32.62,400.21a29,29,0,0,0-2.54-3.28L-10.09,437.1a29.9,29.9,0,0,0,3.28,2.54Z"/><path class="cls-2" d="M13.11,444.09a28.45,28.45,0,0,0,24-24Z"/><path class="cls-2" d="M35.92,407a28.33,28.33,0,0,0-1.73-4.09L-4.14,441.21A27.87,27.87,0,0,0,0,442.94Z"/><path class="cls-2" d="M4.76,387.82a28.45,28.45,0,0,0-24,24Z"/><polygon class="cls-5" points="25.42 485.09 12.59 489.37 45.99 489.37 47.42 485.09 25.42 485.09"/><polygon class="cls-5" points="43.52 496.76 44.95 492.49 3.23 492.49 -9.59 496.76 43.52 496.76"/><polygon class="cls-5" points="38.6 511.55 40.02 507.28 -2.48 507.28 1.8 511.55 38.6 511.55"/><polygon class="cls-5" points="41.06 504.16 42.49 499.88 -9.87 499.88 -5.59 504.16 41.06 504.16"/><polygon class="cls-5" points="36.13 518.95 37.56 514.67 4.92 514.67 9.2 518.95 36.13 518.95"/><polygon class="cls-5" points="48.46 481.98 50.17 476.84 34.77 481.98 48.46 481.98"/><polygon class="cls-5" points="19.71 529.46 29.4 539.15 32.63 529.46 19.71 529.46"/><polygon class="cls-5" points="33.67 526.34 35.09 522.07 12.31 522.07 16.59 526.34 33.67 526.34"/><polygon class="cls-3" points="15.99 310.49 21.95 304.54 -56.29 304.54 -50.34 310.49 15.99 310.49"/><polygon class="cls-3" points="21.95 300.19 15.99 294.24 -50.34 294.24 -56.29 300.19 21.95 300.19"/><polygon class="cls-3" points="-29.74 273.64 -35.7 279.59 1.35 279.59 -4.61 273.64 -29.74 273.64"/><polygon class="cls-3" points="11.65 289.89 5.69 283.94 -40.04 283.94 -45.99 289.89 11.65 289.89"/><polygon class="cls-3" points="-4.61 331.09 1.35 325.13 -35.7 325.13 -29.74 331.09 -4.61 331.09"/><polygon class="cls-3" points="5.69 320.79 11.65 314.84 -45.99 314.84 -40.04 320.79 5.69 320.79"/><polyline class="cls-4" points="-14.42 305.17 -4.47 295.21 5.48 305.17 15.44 295.21 25.39 305.17 35.34 295.21 45.29 305.17 55.25 295.21 65.2 305.17 75.15 295.21"/><polyline class="cls-4" points="116.75 88.4 130.82 88.4 130.82 102.47 144.9 102.47 144.9 116.55 158.97 116.55 158.97 130.63 173.04 130.63 173.04 144.7 187.12 144.7"/><path class="cls-3" d="M159.2,14.88a26.12,26.12,0,1,1-26.12-26.12A26.12,26.12,0,0,1,159.2,14.88Z"/><polygon class="cls-2" points="50.68 26.37 -19.72 70.14 -28.28 -22.14 50.68 26.37"/><path class="cls-4" d="M52.12,19a22.13,22.13,0,1,1-30.48-7.1A22.14,22.14,0,0,1,52.12,19Z"/><rect class="cls-6" x="245.84" y="10.32" width="29.22" height="29.22"/><polygon class="cls-6" points="110.46 372.24 95.85 386.85 81.23 372.24 95.85 357.63 110.46 372.24"/><rect class="cls-6" x="54.62" y="551.69" width="29.22" height="29.22"/><polyline class="cls-4" points="115.85 50.14 121.25 29.98 141.41 35.38 146.81 15.21 166.98 20.62 172.38 0.46 192.54 5.86 197.94 -14.3 218.11 -8.9"/><polyline class="cls-4" points="60.39 414.4 74.84 406.06 83.19 420.51 97.64 412.17 105.98 426.62 120.43 418.28 128.78 432.73 143.23 424.38 151.57 438.84"/><polygon class="cls-5" points="172.46 249.35 168.41 242.33 148.94 315 155.96 310.95 172.46 249.35"/><polygon class="cls-5" points="164.38 241.25 157.37 245.3 140.86 306.91 144.91 313.92 164.38 241.25"/><polygon class="cls-5" points="126.85 282.65 130.9 289.66 140.12 255.26 133.11 259.31 126.85 282.65"/><polygon class="cls-5" points="152.25 248.25 145.24 252.3 133.85 294.78 137.91 301.79 152.25 248.25"/><polygon class="cls-5" points="186.47 273.6 182.42 266.59 173.2 301 180.22 296.95 186.47 273.6"/><polygon class="cls-5" points="185.33 293.99 195.01 288.4 189.42 278.72 185.33 293.99"/><polygon class="cls-5" points="127.99 262.26 118.31 267.85 123.9 277.54 127.99 262.26"/><polygon class="cls-5" points="179.47 261.48 175.42 254.46 161.07 308 168.09 303.95 179.47 261.48"/><path class="cls-5" d="M271,450.21a40.32,40.32,0,1,1-40.32-40.32A40.32,40.32,0,0,1,271,450.21Z"/><rect class="cls-3" x="228.42" y="329.45" width="44.24" height="44.24"/><polygon class="cls-4" points="261.37 473.15 213.97 425.75 285.07 402.05 261.37 473.15"/><path class="cls-5" d="M107.49,232.09a30,30,0,1,1-30-30A30,30,0,0,1,107.49,232.09Z"/><polygon class="cls-4" points="78.04 234.28 42.81 199.04 95.66 181.43 78.04 234.28"/><polygon class="cls-4" points="180.97 501.08 135.65 546.39 112.99 478.42 180.97 501.08"/><polygon class="cls-3" points="236.96 109.02 228.88 125.19 260.46 93.62 257.76 88.23 236.96 109.02"/><polygon class="cls-3" points="265.11 102.94 262.42 97.55 222.98 136.98 214.9 153.15 265.11 102.94"/><polygon class="cls-3" points="274.44 121.58 271.74 116.19 231.57 156.36 239.65 156.36 274.44 121.58"/><polygon class="cls-3" points="269.77 112.26 267.08 106.87 217.59 156.36 225.67 156.36 269.77 112.26"/><polygon class="cls-3" points="279.1 130.9 276.4 125.51 245.55 156.36 253.63 156.36 279.1 130.9"/><polygon class="cls-3" points="255.8 84.3 252.56 77.83 242.86 97.23 255.8 84.3"/><polygon class="cls-3" points="273.51 156.36 291.83 156.36 285.72 144.15 273.51 156.36"/><polygon class="cls-3" points="283.75 140.22 281.06 134.83 259.53 156.36 267.61 156.36 283.75 140.22"/><polygon class="cls-2" points="315.34 236.39 244.94 280.15 236.38 187.87 315.34 236.39"/><path class="cls-4" d="M300.52,140.07a29.37,29.37,0,1,1-40.44-9.44A29.37,29.37,0,0,1,300.52,140.07Z"/><rect class="cls-4" x="250.54" y="314.39" width="37.18" height="37.18"/><polygon class="cls-5" points="53.84 158.01 5.86 175.48 -11.61 127.49 36.38 110.03 53.84 158.01"/><polygon class="cls-4" points="61.45 128.08 21.12 142.75 6.44 102.43 46.77 87.75 61.45 128.08"/><polyline class="cls-4" points="216.01 267.13 230.77 252.37 245.53 267.13 260.29 252.37 275.05 267.13 289.81 252.37 304.57 267.13 319.33 252.37 334.09 267.13 348.85 252.37"/><line class="cls-4" x1="195.65" y1="377.67" x2="177.29" y2="396.03"/><line class="cls-4" x1="195.65" y1="396.03" x2="177.29" y2="377.67"/><line class="cls-4" x1="226.77" y1="84.18" x2="208.41" y2="102.53"/><line class="cls-4" x1="226.77" y1="102.53" x2="208.41" y2="84.18"/><line class="cls-4" x1="96.14" y1="512.49" x2="77.79" y2="530.85"/><line class="cls-4" x1="96.14" y1="530.85" x2="77.79" y2="512.49"/><line class="cls-4" x1="15.62" y1="222.91" x2="-2.74" y2="241.27"/><line class="cls-4" x1="15.62" y1="241.27" x2="-2.74" y2="222.91"/><line class="cls-4" x1="240.75" y1="531.39" x2="222.39" y2="549.74"/><line class="cls-4" x1="240.75" y1="549.74" x2="222.39" y2="531.39"/><path class="cls-6" d="M54.07,343.66a11.59,11.59,0,1,1-11.58-11.59A11.58,11.58,0,0,1,54.07,343.66Z"/><circle class="cls-6" cx="179.87" cy="64.97" r="11.59"/><path class="cls-4" d="M161.84,289.31a22.13,22.13,0,1,1-30.47-7.1A22.12,22.12,0,0,1,161.84,289.31Z"/><rect class="cls-6" x="946.26" y="-2.54" width="29.22" height="29.22"/><polygon class="cls-4" points="1012.99 28.84 991.43 7.28 1023.77 -3.5 1012.99 28.84"/><rect class="cls-4" x="1180.96" y="-20.63" width="22.35" height="22.35"/><polygon class="cls-5" points="1119.01 -61.79 1113.22 -71.82 1085.37 32.1 1095.4 26.31 1119.01 -61.79"/><polygon class="cls-5" points="1107.45 -73.37 1097.42 -67.58 1073.82 20.52 1079.61 30.55 1107.45 -73.37"/><polygon class="cls-5" points="1090.11 -63.35 1080.08 -57.56 1063.8 3.18 1069.59 13.21 1090.11 -63.35"/><polygon class="cls-5" points="1139.04 -27.1 1133.25 -37.13 1120.06 12.07 1130.1 6.28 1139.04 -27.1"/><polygon class="cls-5" points="1137.41 2.06 1151.26 -5.94 1143.26 -19.79 1137.41 2.06"/><polygon class="cls-5" points="1129.03 -44.45 1123.23 -54.48 1102.72 22.09 1112.75 16.29 1129.03 -44.45"/><circle class="cls-5" cx="379.24" cy="162.69" r="40.32"/><polygon class="cls-2" points="796.57 253.17 764.57 221.17 812.57 205.17 796.57 253.17"/><rect class="cls-3" x="296.99" y="31.93" width="44.24" height="44.24"/><polygon class="cls-6" points="410.7 56.83 389.32 56.83 400.01 35.45 410.7 56.83"/><polygon class="cls-4" points="379.94 165.63 332.54 118.23 403.64 94.53 379.94 165.63"/><path class="cls-2" d="M645.44,93.18a28,28,0,0,0-4.1-1.73l-36,36a28.33,28.33,0,0,0,1.73,4.09Z"/><path class="cls-2" d="M604.48,124.07,638,90.55a29.52,29.52,0,0,0-5.27-.55l-28.8,28.8A28.63,28.63,0,0,0,604.48,124.07Z"/><path class="cls-2" d="M660.25,112.8l-33.52,33.52a28.63,28.63,0,0,0,5.27.55l28.8-28.8A29.42,29.42,0,0,0,660.25,112.8Z"/><path class="cls-2" d="M651.38,97.29a28.87,28.87,0,0,0-3.27-2.54l-39.43,39.43a28.87,28.87,0,0,0,2.54,3.27Z"/><path class="cls-2" d="M656.05,102.69a29.9,29.9,0,0,0-2.54-3.28l-40.17,40.17a29.9,29.9,0,0,0,3.28,2.54Z"/><path class="cls-2" d="M636.54,146.57a28.45,28.45,0,0,0,24-24Z"/><path class="cls-2" d="M659.35,109.45a28.33,28.33,0,0,0-1.73-4.09l-38.33,38.33a27.87,27.87,0,0,0,4.09,1.73Z"/><path class="cls-2" d="M628.19,90.3a28.45,28.45,0,0,0-24,24Z"/><polygon class="cls-5" points="648.85 187.57 636.02 191.85 669.42 191.85 670.85 187.57 648.85 187.57"/><polygon class="cls-5" points="666.96 199.24 668.38 194.97 626.66 194.97 613.84 199.24 666.96 199.24"/><polygon class="cls-5" points="662.03 214.03 663.45 209.76 620.96 209.76 625.23 214.03 662.03 214.03"/><polygon class="cls-5" points="664.49 206.64 665.92 202.36 613.56 202.36 617.84 206.64 664.49 206.64"/><polygon class="cls-5" points="659.56 221.43 660.99 217.15 628.35 217.15 632.63 221.43 659.56 221.43"/><polygon class="cls-5" points="671.89 184.46 673.6 179.32 658.2 184.46 671.89 184.46"/><polygon class="cls-5" points="643.14 231.94 652.83 241.63 656.06 231.94 643.14 231.94"/><polygon class="cls-5" points="657.1 228.82 658.52 224.54 635.74 224.54 640.02 228.82 657.1 228.82"/><polygon class="cls-3" points="639.42 12.97 645.38 7.02 567.14 7.02 573.09 12.97 639.42 12.97"/><polygon class="cls-3" points="645.38 2.67 639.42 -3.28 573.09 -3.28 567.14 2.67 645.38 2.67"/><polygon class="cls-3" points="618.82 33.57 624.78 27.61 587.74 27.61 593.69 33.57 618.82 33.57"/><polygon class="cls-3" points="598.03 37.92 606.26 46.14 614.48 37.92 598.03 37.92"/><polygon class="cls-3" points="629.12 23.27 635.08 17.32 577.44 17.32 583.39 23.27 629.12 23.27"/><polyline class="cls-4" points="609.01 7.65 618.96 -2.31 628.91 7.65 638.87 -2.31 648.82 7.65 658.77 -2.31 668.72 7.65 678.68 -2.31 688.63 7.65 698.58 -2.31"/><polyline class="cls-4" points="452.31 215.27 452.31 199.41 468.17 199.41 468.17 183.56 484.02 183.56 484.02 167.71 499.87 167.71 499.87 151.85 515.73 151.85 515.73 136"/><polygon class="cls-2" points="512.41 91.19 458.53 124.69 451.97 54.05 512.41 91.19"/><path class="cls-4" d="M513.52,85.57a16.94,16.94,0,1,1-23.33-5.44A16.94,16.94,0,0,1,513.52,85.57Z"/><rect class="cls-4" x="319.11" y="16.87" width="37.18" height="37.18"/><rect class="cls-6" x="549.01" y="110.78" width="29.22" height="29.22"/><polygon class="cls-6" points="733.89 74.72 719.28 89.33 704.67 74.72 719.28 60.1 733.89 74.72"/><rect class="cls-6" x="322.83" y="294.98" width="29.22" height="29.22"/><rect class="cls-6" x="678.05" y="254.17" width="29.22" height="29.22"/><path class="cls-3" d="M563.62,190.2a20.88,20.88,0,1,1-20.88-20.88A20.88,20.88,0,0,1,563.62,190.2Z"/><polyline class="cls-4" points="528.97 218.39 533.28 202.27 549.4 206.59 553.72 190.47 569.84 194.79 574.16 178.67 590.28 182.99 594.6 166.87 610.71 171.19"/><polyline class="cls-4" points="683.82 116.89 698.27 108.54 706.62 122.99 721.07 114.65 729.41 129.1 743.86 120.76 752.21 135.21 766.66 126.86 775 141.32"/><polygon class="cls-4" points="389.56 326.36 368 304.8 400.34 294.02 389.56 326.36"/><rect class="cls-4" x="557.53" y="276.88" width="22.35" height="22.35"/><polygon class="cls-5" points="495.58 235.73 489.79 225.7 461.94 329.62 471.98 323.83 495.58 235.73"/><polygon class="cls-5" points="484.02 224.15 473.99 229.94 450.38 318.04 456.18 328.07 484.02 224.15"/><polygon class="cls-5" points="430.35 283.35 436.15 293.38 449.33 244.18 439.3 249.97 430.35 283.35"/><polygon class="cls-5" points="466.68 234.17 456.64 239.96 440.37 300.7 446.16 310.73 466.68 234.17"/><polygon class="cls-5" points="515.61 270.42 509.82 260.39 496.63 309.59 506.66 303.8 515.61 270.42"/><polygon class="cls-5" points="513.98 299.58 527.83 291.58 519.83 277.73 513.98 299.58"/><polygon class="cls-5" points="431.99 254.19 418.14 262.19 426.13 276.04 431.99 254.19"/><polygon class="cls-5" points="505.6 253.07 499.8 243.04 479.29 319.61 489.32 313.81 505.6 253.07"/><polygon class="cls-5" points="795.89 -48.17 791.85 -55.19 772.37 17.48 779.39 13.43 795.89 -48.17"/><polygon class="cls-5" points="787.81 -56.27 780.8 -52.22 764.29 9.39 768.34 16.4 787.81 -56.27"/><polygon class="cls-5" points="775.68 -49.27 768.67 -45.22 757.28 -2.74 761.34 4.27 775.68 -49.27"/><polygon class="cls-5" points="809.9 -23.92 805.85 -30.93 796.63 3.48 803.65 -0.57 809.9 -23.92"/><polygon class="cls-5" points="802.9 -36.05 798.85 -43.06 784.5 10.48 791.52 6.43 802.9 -36.05"/><path class="cls-5" d="M894.42,152.69a40.32,40.32,0,1,1-40.32-40.32A40.32,40.32,0,0,1,894.42,152.69Z"/><rect class="cls-3" x="851.85" y="31.93" width="44.24" height="44.24"/><polygon class="cls-4" points="884.8 175.63 837.4 128.23 908.5 104.53 884.8 175.63"/><path class="cls-5" d="M509.6-3.89A28.09,28.09,0,0,1,481.51,24.2,28.09,28.09,0,0,1,453.42-3.89,28.09,28.09,0,0,1,481.51-32,28.09,28.09,0,0,1,509.6-3.89Z"/><polygon class="cls-4" points="482 -1.84 448.98 -34.86 498.51 -51.37 482 -1.84"/><polygon class="cls-4" points="804.4 203.56 759.08 248.88 736.42 180.9 804.4 203.56"/><rect class="cls-4" x="873.97" y="16.87" width="37.18" height="37.18"/><line class="cls-4" x1="819.08" y1="80.15" x2="800.72" y2="98.51"/><line class="cls-4" x1="819.08" y1="98.51" x2="800.72" y2="80.15"/><line class="cls-4" x1="719.57" y1="214.97" x2="701.22" y2="233.33"/><line class="cls-4" x1="719.57" y1="233.33" x2="701.22" y2="214.97"/><line class="cls-4" x1="864.18" y1="233.87" x2="845.82" y2="252.22"/><line class="cls-4" x1="864.18" y1="252.22" x2="845.82" y2="233.87"/><line class="cls-4" x1="391.25" y1="243.99" x2="372.9" y2="262.35"/><line class="cls-4" x1="391.25" y1="262.35" x2="372.9" y2="243.99"/><path class="cls-6" d="M563.49,67.56A11.59,11.59,0,1,1,551.9,56,11.59,11.59,0,0,1,563.49,67.56Z"/><path class="cls-6" d="M677.5,46.14a11.59,11.59,0,1,1-11.58-11.59A11.58,11.58,0,0,1,677.5,46.14Z"/><path class="cls-4" d="M785.28-8.21a22.13,22.13,0,1,1-30.48-7.1A22.14,22.14,0,0,1,785.28-8.21Z"/></pattern></defs><title> 3</title><g id="_2" data-name=" 2"><g id="objects"><rect class="cls-7" width="500" height="500"/></g><g id="Pattern"><rect class="cls-8" width="500" height="500"/></g></g></svg>